HIERARCHY
ROOT SpineBase
{
  OFFSET 0.000000 0.000000 0.000000
  CHANNELS 6 Xposition Yposition Zposition Zrotation Xrotation Yrotation
  JOINT SpineMid
  {
    OFFSET 0.000000 31.956165 0.000000
    CHANNELS 3 Zrotation Xrotation Yrotation
    JOINT SpineShoulder
    {
      OFFSET -0.033475 23.701840 -0.780543
      CHANNELS 3 Zrotation Xrotation Yrotation
      JOINT Neck
      {
        OFFSET -0.016140 7.829193 -0.585822
        CHANNELS 3 Zrotation Xrotation Yrotation
        JOINT Head
        {
          OFFSET 5.739487 11.716109 7.187940
          CHANNELS 3 Zrotation Xrotation Yrotation
          End Site
          {
            OFFSET 0 0 0
          }
        }
      }
      JOINT ShoulderLeft
      {
        OFFSET -12.186372 -2.798428 -10.943573
        CHANNELS 3 Zrotation Xrotation Yrotation
        JOINT ElbowLeft
        {
          OFFSET -11.061261 -25.270264 -4.700878
          CHANNELS 3 Zrotation Xrotation Yrotation
          JOINT WristLeft
          {
            OFFSET -1.439656 -23.375570 -4.549988
            CHANNELS 3 Zrotation Xrotation Yrotation
            JOINT HandLeft
            {
              OFFSET -0.298989 -7.834877 -0.214594
              CHANNELS 3 Zrotation Xrotation Yrotation
              JOINT HandTipLeft
              {
                OFFSET 0.208522 -8.183857 1.149728
                CHANNELS 3 Zrotation Xrotation Yrotation
                End Site
                {
                  OFFSET 0 0 0
                }
              }
              JOINT ThumbLeft
              {
                OFFSET 4.215796 -0.223848 1.672294
                CHANNELS 3 Zrotation Xrotation Yrotation
                End Site
                {
                  OFFSET 0 0 0
                }
              }
            }
          }
        }
      }
      JOINT ShoulderRight
      {
        OFFSET 13.300609 -2.490576 11.201759
        CHANNELS 3 Zrotation Xrotation Yrotation
        JOINT ElbowRight
        {
          OFFSET 0.683284 -27.257604 2.575018
          CHANNELS 3 Zrotation Xrotation Yrotation
          JOINT WristRight
          {
            OFFSET 1.331829 -27.148679 1.990272
            CHANNELS 3 Zrotation Xrotation Yrotation
            JOINT HandRight
            {
              OFFSET 0.645977 -4.637549 2.979024
              CHANNELS 3 Zrotation Xrotation Yrotation
              JOINT HandTipRight
              {
                OFFSET 0.231751 -0.791828 -0.106476
                CHANNELS 3 Zrotation Xrotation Yrotation
                End Site
                {
                  OFFSET 0 0 0
                }
              }
              JOINT ThumbRight
              {
                OFFSET -0.100040 0.495816 -3.400151
                CHANNELS 3 Zrotation Xrotation Yrotation
                End Site
                {
                  OFFSET 0 0 0
                }
              }
            }
          }
        }
      }
    }
  }
  JOINT HipLeft
  {
    OFFSET -5.572554 1.480053 -8.086942
    CHANNELS 3 Zrotation Xrotation Yrotation
    JOINT KneeLeft
    {
      OFFSET -8.312888 -38.489634 -1.352654
      CHANNELS 3 Zrotation Xrotation Yrotation
      JOINT AnkleLeft
      {
        OFFSET -11.302586 -33.840747 -0.277896
        CHANNELS 3 Zrotation Xrotation Yrotation
        JOINT FootLeft
        {
          OFFSET -3.134229 -7.124044 -7.542111
          CHANNELS 3 Zrotation Xrotation Yrotation
          End Site
          {
            OFFSET 0 0 0
          }
        }
      }
    }
  }
  JOINT HipRight
  {
    OFFSET 5.743498 0.217222 0.918440
    CHANNELS 3 Zrotation Xrotation Yrotation
    JOINT KneeRight
    {
      OFFSET 0.603327 -34.958357 3.633568
      CHANNELS 3 Zrotation Xrotation Yrotation
      JOINT AnkleRight
      {
        OFFSET -5.974662 -36.433992 5.539797
        CHANNELS 3 Zrotation Xrotation Yrotation
        JOINT FootRight
        {
          OFFSET 8.895832 -2.267257 -12.641327
          CHANNELS 3 Zrotation Xrotation Yrotation
          End Site
          {
            OFFSET 0 0 0
          }
        }
      }
    }
  }
}
MOTION
Frames: 16
Frame Time: 0.033333
-10.001409 80.161229 341.080824 -0.000000 0.000000 -38.512982 -0.000000 0.000000 38.512982 -0.000000 0.000000 0.000000 -0.000000 0.000000 0.000000 0.000000 0.000000 0.000000 -0.000000 0.000000 0.000000 -0.000000 0.000000 0.000000 -0.000000 0.000000 0.000000 -0.000000 0.000000 0.000000 0.000000 0.000000 0.000000 0.000000 0.000000 0.000000 -0.000000 0.000000 0.000000 -0.000000 0.000000 0.000000 -0.000000 0.000000 0.000000 -0.000000 0.000000 0.000000 0.000000 0.000000 0.000000 0.000000 0.000000 0.000000 -0.000000 0.000000 38.512982 -0.000000 0.000000 0.000000 -0.000000 0.000000 0.000000 0.000000 0.000000 0.000000 -0.000000 0.000000 38.512982 -0.000000 0.000000 0.000000 -0.000000 0.000000 0.000000 0.000000 0.000000 0.000000
-10.172733 80.347780 340.562861 0.532924 0.225063 -39.623633 -0.266965 -0.513217 39.621391 -0.000000 0.000000 0.000000 -0.000000 0.000000 0.000000 0.000000 0.000000 0.000000 0.847731 1.377139 -0.771480 3.072038 1.575222 -0.199246 1.389707 -0.151111 0.736388 -0.328340 -2.381745 1.056328 0.000000 0.000000 0.000000 0.000000 0.000000 0.000000 1.069119 -0.639282 0.090872 -1.068170 0.640866 -0.078934 -1.546051 9.935322 0.560961 -5.852084 -20.228167 -4.416931 0.000000 0.000000 0.000000 0.000000 0.000000 0.000000 -0.266965 -0.513217 39.621391 0.764160 -1.021505 0.342509 -0.758162 1.025965 -0.328908 0.000000 0.000000 0.000000 -1.048330 -0.719220 39.542605 1.370604 -1.137418 0.308536 -3.567226 -3.179841 0.554995 0.000000 0.000000 0.000000
-10.353050 80.523984 340.078087 1.045238 0.420595 -40.661940 0.188609 0.058116 40.700259 0.068520 -0.002090 0.056960 -1.295281 -0.337530 -0.101415 0.000000 0.000000 0.000000 0.363807 2.303554 -1.598196 5.786811 2.957027 -0.379022 2.247462 -0.103427 1.442366 -0.294734 -4.418256 2.167429 0.000000 0.000000 0.000000 0.000000 0.000000 0.000000 0.575149 -1.302525 0.077898 -0.489999 1.194991 -0.050406 -3.945144 16.672657 1.072043 -6.543207 -28.237046 -6.342324 0.000000 0.000000 0.000000 0.000000 0.000000 0.000000 -1.735136 -1.538364 40.588648 2.745344 -2.323775 0.716664 -1.745053 2.793393 -0.644745 0.000000 0.000000 0.000000 -2.008202 -1.385195 40.490643 2.647430 -2.242880 0.621631 -7.479621 -6.930245 1.024875 0.000000 0.000000 0.000000
-10.542359 80.689841 339.626502 1.536465 0.586282 -41.630280 0.241087 0.080848 41.683782 0.083591 -0.002578 0.081168 -1.855154 -0.479522 -0.147536 0.000000 0.000000 0.000000 0.571761 3.317219 -2.329149 8.064690 4.081269 -0.500322 2.538093 0.100106 2.040672 0.093019 -6.076678 3.255036 0.000000 0.000000 0.000000 0.000000 0.000000 0.000000 0.549133 -1.453264 0.095823 -0.189181 1.591777 -0.039360 -5.449351 21.373710 1.584734 -6.505496 -32.955839 -7.333427 0.000000 0.000000 0.000000 0.000000 0.000000 0.000000 -2.495056 -2.265128 41.502498 3.959756 -3.315651 1.048912 -2.420105 3.942758 -0.960629 0.000000 0.000000 0.000000 -2.890818 -1.992451 41.363359 3.833792 -3.315495 0.937438 -11.708320 -11.192166 1.313468 0.000000 0.000000 0.000000
-10.740660 80.845351 339.208106 2.006168 0.721868 -42.531049 0.266173 0.097328 42.597307 0.085736 -0.002817 0.102408 -2.355745 -0.603639 -0.189883 0.000000 0.000000 0.000000 0.793569 4.242811 -3.011397 9.859095 4.909084 -0.530856 2.273542 0.425656 2.480812 0.795802 -7.365305 4.249312 0.000000 0.000000 0.000000 0.000000 0.000000 0.000000 0.314109 -1.270164 0.089423 0.475586 1.854753 -0.000509 -6.773084 24.702951 2.022569 -6.129807 -35.845000 -7.724143 0.000000 0.000000 0.000000 0.000000 0.000000 0.000000 -3.186693 -2.953769 42.341798 5.071078 -4.204428 1.361415 -2.972932 4.932571 -1.284544 0.000000 0.000000 0.000000 -3.706107 -2.536421 42.166620 4.932263 -4.354538 1.254092 -16.190292 -15.815475 1.319822 0.000000 0.000000 0.000000
-10.947952 80.990513 338.822899 2.453947 0.827147 -43.366592 0.264269 0.106298 43.443370 0.074883 -0.002884 0.120612 -2.796595 -0.709888 -0.227995 0.000000 0.000000 0.000000 1.027038 5.083632 -3.642913 11.150211 5.420049 -0.448536 1.483288 0.852314 2.738662 1.768114 -8.313422 5.094609 0.000000 0.000000 0.000000 0.000000 0.000000 0.000000 -0.129030 -0.753461 0.057118 1.502865 1.985340 0.077190 -7.960852 27.084108 2.384447 -5.460402 -37.454630 -7.621878 0.000000 0.000000 0.000000 0.000000 0.000000 0.000000 -3.812659 -3.597990 43.112385 6.080823 -4.996644 1.652784 -3.409504 5.766523 -1.623345 0.000000 0.000000 0.000000 -4.462823 -3.013250 42.905849 5.944757 -5.359481 1.569712 -20.825585 -20.561693 0.963648 0.000000 0.000000 0.000000
-11.167082 81.159044 338.441595 2.899182 0.954704 -44.160180 0.208529 0.090829 44.243418 0.033477 -0.005558 0.133971 -3.104846 -1.862630 0.205839 0.000000 0.000000 0.000000 1.328553 5.975870 -4.314560 11.989863 5.239737 -0.082703 0.429761 2.748431 2.579600 3.039590 -9.759366 6.090268 0.000000 0.000000 0.000000 0.000000 0.000000 0.000000 -1.557485 0.448982 -0.072351 3.966931 1.850326 0.335363 -8.224651 29.404607 3.346073 -3.572862 -37.210495 -6.749318 0.000000 0.000000 0.000000 0.000000 0.000000 0.000000 -4.405745 -4.277039 43.831443 7.104827 -5.731597 1.934939 -3.668533 6.409915 -2.098203 0.000000 0.000000 0.000000 -5.215217 -3.505564 43.589976 7.038373 -6.399896 1.923004 -27.763844 -28.001847 0.451463 0.000000 0.000000 0.000000
-11.356130 81.320164 338.144442 3.358365 0.966913 -44.935509 0.135815 0.084856 45.026537 -0.010462 -0.002113 0.147184 -3.658023 -2.039490 0.348024 0.000000 0.000000 0.000000 1.641350 6.633052 -4.852089 12.288895 4.811512 0.293509 -1.854135 4.888923 2.213650 4.704265 -11.428617 6.864029 0.000000 0.000000 0.000000 0.000000 0.000000 0.000000 -3.208645 2.800813 -0.177176 6.845799 0.273592 0.804369 -10.045684 30.948764 3.368457 -0.909610 -36.043872 -4.606901 0.000000 0.000000 0.000000 0.000000 0.000000 0.000000 -4.968573 -4.889492 44.547566 7.909191 -6.266018 2.148477 -3.781883 6.899856 -2.550536 0.000000 0.000000 0.000000 -5.945817 -3.870135 44.272889 7.910893 -7.302326 2.230952 -34.175984 -34.201887 -1.168291 0.000000 0.000000 0.000000
-11.588727 81.402963 337.854274 3.767312 0.964857 -45.681204 0.046226 0.063813 45.777803 -0.066700 0.001897 0.156288 -3.704268 -1.806639 0.050485 0.000000 0.000000 0.000000 1.846553 7.304900 -5.343793 12.248355 4.585476 0.698545 -4.702702 4.020276 2.275696 6.670673 -10.243658 6.759061 0.000000 0.000000 0.000000 0.000000 0.000000 0.000000 -3.774853 4.079195 -0.191836 8.427154 -0.001171 1.111616 -11.466869 32.269808 3.406259 -0.407104 -36.065333 -3.935973 0.000000 0.000000 0.000000 0.000000 0.000000 0.000000 -5.404725 -5.436027 45.246178 8.642967 -6.791737 2.369114 -3.914206 7.443595 -3.012639 0.000000 0.000000 0.000000 -6.653203 -4.136219 44.931670 8.716708 -8.299686 2.555037 -38.631446 -37.612883 -2.837350 0.000000 0.000000 0.000000
-11.871856 81.456409 337.593064 4.067028 0.926974 -46.216515 -0.011916 0.057044 46.318643 -0.101190 0.000121 0.164156 -4.003830 -0.953949 -0.334836 0.000000 0.000000 0.000000 2.040504 7.745221 -5.684842 11.256808 4.248215 1.135448 -7.032468 2.512433 2.262524 7.343923 -9.115644 5.921009 0.000000 0.000000 0.000000 0.000000 0.000000 0.000000 -3.829250 4.788577 -0.182542 9.076176 0.576697 1.240748 -11.840016 32.262654 3.470485 -1.196114 -36.458746 -4.456322 0.000000 0.000000 0.000000 0.000000 0.000000 0.000000 -5.682794 -5.723978 45.746144 9.122260 -7.264579 2.573679 -3.956389 7.857399 -3.462731 0.000000 0.000000 0.000000 -7.041974 -4.215725 45.434792 9.060099 -8.977814 2.753750 -39.603036 -37.410114 -4.070131 0.000000 0.000000 0.000000
-12.221598 81.487157 337.285432 4.215029 0.984343 -46.503858 -0.044102 0.000407 46.605528 -0.123917 -0.017305 0.166397 -3.349608 -0.970966 -0.774888 0.000000 0.000000 0.000000 2.334518 7.833109 -5.839802 9.868074 3.977493 1.449170 -9.498963 -0.106037 2.206861 9.270460 -6.990404 5.081033 0.000000 0.000000 0.000000 0.000000 0.000000 0.000000 -3.279275 4.750210 -0.150991 8.289735 1.773229 1.095883 -10.945839 32.524728 3.962638 -3.408908 -36.759499 -5.892346 0.000000 0.000000 0.000000 0.000000 0.000000 0.000000 -5.527092 -5.877359 46.053780 9.231089 -7.439298 2.668173 -3.914679 8.088360 -3.835720 0.000000 0.000000 0.000000 -6.879308 -4.220442 45.749377 8.959844 -9.247703 2.820644 -36.237923 -32.944937 -4.291906 0.000000 0.000000 0.000000
-12.561463 81.501700 337.045283 4.335629 0.994998 -46.546199 -0.057509 -0.022321 46.649516 -0.136114 -0.019199 0.169435 -2.936014 -0.704257 -1.214786 0.000000 0.000000 0.000000 2.153744 7.843239 -5.825890 8.528256 3.230441 1.798147 -11.000508 -3.853689 2.144740 10.310113 -2.607087 3.599913 0.000000 0.000000 0.000000 0.000000 0.000000 0.000000 -2.312165 3.772532 -0.101454 7.569599 5.187998 0.780160 -10.337354 32.269958 4.392009 -5.959952 -36.969970 -7.536944 0.000000 0.000000 0.000000 0.000000 0.000000 0.000000 -5.429451 -5.865158 46.105190 9.287720 -7.688664 2.791504 -3.894391 8.538946 -4.264488 0.000000 0.000000 0.000000 -6.754119 -4.104191 45.831182 8.807846 -9.532766 2.878026 -36.376714 -32.451469 -4.892673 0.000000 0.000000 0.000000
-13.027481 81.464540 336.747281 4.247068 1.094820 -46.340029 -0.059922 -0.042665 46.437343 -0.129375 -0.029504 0.165886 -2.232731 -0.746153 -1.593739 0.000000 0.000000 0.000000 2.069304 7.304681 -5.537968 6.812190 2.963048 1.878794 -11.652696 -7.165324 1.906180 9.202905 1.836178 1.980062 0.000000 0.000000 0.000000 0.000000 0.000000 0.000000 -1.484649 3.214027 -0.042356 6.799952 7.258758 0.569067 -5.747332 31.905491 7.276897 -10.449765 -35.043517 -11.787519 0.000000 0.000000 0.000000 0.000000 0.000000 0.000000 -4.902535 -5.626003 45.954884 9.041476 -7.757878 2.851929 -4.021696 8.886734 -4.439188 0.000000 0.000000 0.000000 -6.106082 -3.840482 45.725075 8.314479 -9.504962 2.837366 -36.829913 -32.460050 -5.595476 0.000000 0.000000 0.000000
-13.549021 81.375051 336.445635 4.027894 1.242021 -45.781356 -0.050747 -0.053892 45.868936 -0.116296 -0.040917 0.157989 -1.579569 -0.972955 -1.795479 0.000000 0.000000 0.000000 1.925716 6.320896 -5.001530 4.750723 2.047389 1.948072 -11.257693 -8.497489 1.579476 8.169441 4.796353 0.973330 0.000000 0.000000 0.000000 0.000000 0.000000 0.000000 -0.521226 2.177191 0.039233 7.759695 10.943755 0.286776 -4.234348 29.539344 8.825706 -10.790302 -35.007064 -13.567908 0.000000 0.000000 0.000000 0.000000 0.000000 0.000000 -4.181686 -5.199002 45.461832 8.609139 -7.808226 2.907133 -4.100233 9.450865 -4.710533 0.000000 0.000000 0.000000 -5.103930 -3.490846 45.303924 7.506832 -9.213950 2.705459 -37.549534 -32.910549 -6.503257 0.000000 0.000000 0.000000
-14.093766 81.275054 336.187748 3.736942 1.377845 -44.950387 -0.029227 -0.040250 45.028541 -0.091922 -0.045060 0.148941 -1.233941 -1.195685 -1.788942 0.000000 0.000000 0.000000 1.683183 5.123613 -4.335557 2.765227 0.778182 1.966557 -10.407386 -8.610368 1.254994 7.747165 7.340190 0.349592 0.000000 0.000000 0.000000 0.000000 0.000000 0.000000 0.601439 0.644238 0.157332 9.865296 16.399559 -0.376651 -3.987254 28.106288 10.590528 -7.056231 -33.628596 -12.526818 0.000000 0.000000 0.000000 0.000000 0.000000 0.000000 -3.430026 -4.612165 44.681963 8.093813 -7.869071 2.966278 -4.070602 9.925879 -5.070046 0.000000 0.000000 0.000000 -4.184436 -3.100943 44.594799 6.956594 -9.065391 2.653270 -38.666640 -33.567742 -7.341691 0.000000 0.000000 0.000000
-14.609797 81.159327 335.995641 3.435029 1.476947 -43.957842 -0.004282 -0.021135 44.028356 -0.062116 -0.047889 0.140177 -0.625059 -1.582920 -1.840756 0.000000 0.000000 0.000000 1.410186 3.795684 -3.597451 1.036208 -0.488074 1.873034 -9.492779 -7.960122 0.961069 6.633430 8.799790 -0.085041 0.000000 0.000000 0.000000 0.000000 0.000000 0.000000 1.000125 -0.633291 0.213603 14.877486 22.200102 -1.592633 -5.026981 27.259599 12.544362 -3.744234 -30.874734 -11.846688 0.000000 0.000000 0.000000 0.000000 0.000000 0.000000 -2.747574 -3.961479 43.718393 7.587179 -7.958000 3.033659 -4.003763 10.470565 -5.503038 0.000000 0.000000 0.000000 -3.327861 -2.688730 43.715110 6.435660 -8.916784 2.602813 -40.171241 -34.615723 -8.269087 0.000000 0.000000 0.000000
